<svg
  xmlns="http://www.w3.org/2000/svg"
  xmlns:xlink="http://www.w3.org/1999/xlink"
  style="display: none;"
>
  <!-- Открыть меню -->
  <symbol id="icon-modal-open" viewBox="0 0 39 16">
    <line y1="1" x2="39" y2="1" stroke="currentColor"/>
    <line x1="5" y1="8" x2="34" y2="8" stroke="currentColor"/>
    <line y1="15" x2="39" y2="15" stroke="currentColor"/>
  </symbol>

  <!-- Закрыть меню -->
  <symbol id="icon-modal-close" viewBox="0 0 40 40">
    <path
      d="M10 10 L30 30 M30 10 L10 30"
      stroke="currentColor"
      stroke-width="2"
      stroke-linecap="round"
    />
  </symbol>

  <!-- Стрелка -->
  <symbol id="icon-arrow" viewBox="0 0 60 10">
    <path d="M0 5H58" stroke="currentColor" stroke-width="2"/>
    <path d="M58 5L53 1" stroke="currentColor" stroke-width="2"/>
    <path d="M58 5L53 9" stroke="currentColor" stroke-width="2"/>
  </symbol>

  <!-- Instagram -->
  <symbol id="icon-inst" viewBox="0 0 20 19">
   <path d="M14.9879 0.046875H5.32806C2.65934 0.046875 0.488281 2.2648 0.488281 4.99113V14.0193C0.488281 16.7456 2.65934 18.9635 5.32806 18.9635H14.9879C17.6566 18.9635 19.8277 16.7456 19.8277 14.0193V4.99113C19.8277 2.2648 17.6566 0.046875 14.9879 0.046875ZM2.1956 4.99113C2.1956 3.22684 3.60105 1.79104 5.32806 1.79104H14.9879C16.7149 1.79104 18.1204 3.22684 18.1204 4.99113V14.0193C18.1204 15.7835 16.7149 17.2193 14.9879 17.2193H5.32806C3.60105 17.2193 2.1956 15.7835 2.1956 14.0193V4.99113Z" />
<path d="M10.1581 14.1032C12.6398 14.1032 14.6599 12.0406 14.6599 9.50426C14.6599 6.96788 12.6408 4.90527 10.1581 4.90527C7.67529 4.90527 5.65625 6.96788 5.65625 9.50426C5.65625 12.0406 7.67529 14.1032 10.1581 14.1032ZM10.1581 6.65055C11.6991 6.65055 12.9526 7.93103 12.9526 9.50537C12.9526 11.0797 11.6991 12.3602 10.1581 12.3602C8.61699 12.3602 7.36357 11.0797 7.36357 9.50537C7.36357 7.93103 8.61699 6.65055 10.1581 6.65055Z" />
<path d="M15.0762 5.64819C15.7445 5.64819 16.2892 5.09288 16.2892 4.40907C16.2892 3.72525 15.7456 3.16992 15.0762 3.16992C14.4069 3.16992 13.8633 3.72525 13.8633 4.40907C13.8633 5.09288 14.4069 5.64819 15.0762 5.64819Z"/></symbol>

  <!-- TikTok -->
  <symbol id="icon-tiktok" viewBox="0 0 16 19">
   <path d="M15.2064 5.09649V8.10773C14.6803 8.05633 13.9967 7.93677 13.2405 7.65967C12.253 7.29765 11.518 6.80268 11.0366 6.41944V12.5056L11.0243 12.4866C11.0321 12.6073 11.0366 12.7302 11.0366 12.8542C11.0366 15.8766 8.57806 18.337 5.55541 18.337C2.53277 18.337 0.0742188 15.8766 0.0742188 12.8542C0.0742188 9.83179 2.53277 7.3703 5.55541 7.3703C5.85142 7.3703 6.14185 7.39375 6.42557 7.43956V10.4072C6.15302 10.31 5.86036 10.2575 5.55541 10.2575C4.12452 10.2575 2.95947 11.4218 2.95947 12.8542C2.95947 14.2866 4.12452 15.4509 5.55541 15.4509C6.98631 15.4509 8.15136 14.2855 8.15136 12.8542C8.15136 12.8006 8.15024 12.7469 8.14689 12.6933V0.866211H11.155C11.1662 1.12097 11.1762 1.37797 11.1874 1.63272C11.2075 2.13441 11.3862 2.61599 11.6979 3.01042C12.0631 3.47411 12.6027 4.01265 13.36 4.44283C14.0693 4.84396 14.7351 5.01716 15.2064 5.09873V5.09649Z" />

  </symbol>

  <!-- Telegram -->
  <symbol id="icon-teleg" viewBox="0 0 22 18">
    <path d="M0.984549 7.89767C1.03185 7.87401 1.07918 7.85153 1.12531 7.83023C1.92714 7.45877 2.73962 7.11097 3.55092 6.76317C3.59467 6.76317 3.66798 6.71229 3.70937 6.69573C3.77205 6.66852 3.83474 6.6425 3.89742 6.61529C4.01805 6.56324 4.13869 6.51237 4.25814 6.46031C4.4994 6.35739 4.73946 6.25449 4.98072 6.15157C5.46205 5.94573 5.94339 5.73989 6.42472 5.53287C7.3874 5.12118 8.35128 4.70829 9.31395 4.29661C10.2766 3.88493 11.2405 3.47207 12.2031 3.06039C13.1658 2.6487 14.1297 2.23585 15.0923 1.82416C16.055 1.41248 17.0189 0.999621 17.9816 0.587939C18.1956 0.495665 18.4274 0.358434 18.6569 0.318212C18.8496 0.283905 19.0377 0.217668 19.2316 0.180995C19.5994 0.111198 20.0051 0.082802 20.3575 0.235408C20.4793 0.288643 20.5917 0.363157 20.6851 0.456613C21.1321 0.899054 21.0694 1.62543 20.9748 2.24768C20.3161 6.58455 19.6574 10.9226 18.9974 15.2594C18.9076 15.8545 18.7846 16.5075 18.3151 16.8837C17.9177 17.2019 17.3524 17.2374 16.8616 17.1025C16.3708 16.9665 15.9379 16.6814 15.5134 16.401C13.7524 15.2346 11.9903 14.0682 10.2293 12.9017C9.81066 12.6249 9.34471 12.2629 9.34944 11.7601C9.3518 11.4573 9.53273 11.1876 9.71722 10.9474C11.2476 8.95051 13.4556 7.57826 15.0983 5.67363C15.3301 5.40509 15.5122 4.92007 15.1941 4.7651C15.0048 4.67283 14.7872 4.7982 14.6146 4.91768C12.4432 6.426 10.2731 7.93551 8.10174 9.44383C7.39333 9.93595 6.65063 10.4423 5.79676 10.5629C5.03277 10.6718 4.26406 10.4588 3.5249 10.2412C2.90519 10.059 2.28665 9.87207 1.67049 9.67924C1.3429 9.5775 1.00466 9.46749 0.751571 9.2368C0.498484 9.00612 0.353038 8.61811 0.5056 8.31054C0.601394 8.11771 0.787073 7.99586 0.98221 7.89649L0.984549 7.89767Z" />
</symbol>
</svg>
